<svg xmlns="http://www.w3.org/2000/svg" xmlns:xlink="http://www.w3.org/1999/xlink" width="102" height="102" viewBox="0 0 102 102"><defs><style>.a{fill:url(#a);}.b{fill:#fff;}.c{filter:url(#b);}</style><linearGradient id="a" x1="0.091" y1="-0.062" x2="0.752" y2="1.049" gradientUnits="objectBoundingBox"><stop offset="0" stop-color="#aa30c8"/><stop offset="1" stop-color="#3059c8"/></linearGradient><filter id="b" x="0" y="0" width="102" height="102" filterUnits="userSpaceOnUse"><feOffset dx="5" dy="5" input="SourceAlpha"/><feGaussianBlur stdDeviation="4.5" result="c"/><feFlood flood-opacity="0.161"/><feComposite operator="in" in2="c"/><feComposite in="SourceGraphic"/></filter></defs><g transform="translate(8.5 8.5)"><g class="c" transform="matrix(1, 0, 0, 1, -8.5, -8.5)"><circle class="a" cx="37.5" cy="37.5" r="37.5" transform="translate(8.5 8.5)"/></g><g transform="translate(13.951 17.765)"><g transform="translate(0 0)"><path class="b" d="M34.818,15.988H4.156A4.16,4.16,0,0,0,0,20.144V42.309a4.16,4.16,0,0,0,4.156,4.156H8.312v6.927a1.387,1.387,0,0,0,2.364.98l7.5-7.5a1.383,1.383,0,0,1,.98-.406H34.818a4.16,4.16,0,0,0,4.156-4.156V20.144A4.161,4.161,0,0,0,34.818,15.988ZM6.927,24.3H26.506a1.385,1.385,0,0,1,0,2.771H6.927a1.385,1.385,0,0,1,0-2.771ZM20.964,38.153H6.927a1.385,1.385,0,1,1,0-2.771H20.964a1.385,1.385,0,1,1,0,2.771Zm11.083-5.541H6.927a1.385,1.385,0,1,1,0-2.771h25.12a1.385,1.385,0,1,1,0,2.771Z" transform="translate(0 -15.988)"/></g><g transform="translate(16.959 5.541)"><path class="b" d="M209.8,75.989h-1.367v20.78a6.951,6.951,0,0,1-6.945,6.927h-14.9l-2.955,2.752h11.743l7.906,7.925a1.385,1.385,0,0,0,2.365-.979v-6.945H209.8a4.145,4.145,0,0,0,4.156-4.137V80.145A4.16,4.16,0,0,0,209.8,75.989Z" transform="translate(-183.631 -75.989)"/></g></g></g></svg>